HIERARCHY
ROOT Hips
{
	OFFSET 0.000000 95.729000 0.000000
	CHANNELS 6 Xposition Yposition Zposition Yrotation Xrotation Zrotation
	JOINT RightUpLeg
	{
		OFFSET -9.625000 -1.639000 0.000000
		CHANNELS 3 Yrotation Xrotation Zrotation
		JOINT RightLeg
		{
			OFFSET 0.000000 -41.481000 0.000000
			CHANNELS 3 Yrotation Xrotation Zrotation
			JOINT RightFoot
			{
				OFFSET 0.000000 -43.120000 0.000000
				CHANNELS 3 Yrotation Xrotation Zrotation
				End Site
				{
					OFFSET 0.000000 -7.850000 17.850000
				}
			}
		}
	}
	JOINT LeftUpLeg
	{
		OFFSET 9.625000 -1.639000 0.000000
		CHANNELS 3 Yrotation Xrotation Zrotation
		JOINT LeftLeg
		{
			OFFSET 0.000000 -43.120000 0.000000
			CHANNELS 3 Yrotation Xrotation Zrotation
			JOINT LeftFoot
			{
				OFFSET 0.000000 -43.120000 0.000000
				CHANNELS 3 Yrotation Xrotation Zrotation
				End Site
				{
					OFFSET 0.000000 -7.850000 17.850000
				}
			}
		}
	}
	JOINT Spine
	{
		OFFSET 0.000000 16.395000 0.000000
		CHANNELS 3 Yrotation Xrotation Zrotation
		JOINT Spine1
		{
			OFFSET 0.000000 10.023000 0.000000
			CHANNELS 3 Yrotation Xrotation Zrotation
			JOINT Spine2
			{
				OFFSET 0.000000 10.437000 0.000000
				CHANNELS 3 Yrotation Xrotation Zrotation
				JOINT Spine3
				{
					OFFSET 0.000000 10.023000 0.000000
					CHANNELS 3 Yrotation Xrotation Zrotation
					JOINT Neck
					{
						OFFSET 0.000000 10.713000 0.000000
						CHANNELS 3 Yrotation Xrotation Zrotation
						JOINT Head
						{
							OFFSET 0.000000 9.720000 0.000000
							CHANNELS 3 Yrotation Xrotation Zrotation
							End Site
							{
								OFFSET 0.000000 16.450000 0.000000
							}
						}
					}
					JOINT RightShoulder
					{
						OFFSET -3.275000 7.142000 0.000000
						CHANNELS 3 Yrotation Xrotation Zrotation
						JOINT RightArm
						{
							OFFSET -13.100000 0.000000 0.000000
							CHANNELS 3 Yrotation Xrotation Zrotation
							JOINT RightForeArm
							{
								OFFSET -27.250000 0.000000 0.000000
								CHANNELS 3 Yrotation Xrotation Zrotation
								JOINT RightHand
								{
									OFFSET -26.750000 0.000000 0.000000
									CHANNELS 3 Yrotation Xrotation Zrotation
									End Site
									{
										OFFSET -3.479000 0.532000 0.778000
									}
								}
							}
						}
					}
					JOINT LeftShoulder
					{
						OFFSET 3.275000 7.142000 0.000000
						CHANNELS 3 Yrotation Xrotation Zrotation
						JOINT LeftArm
						{
							OFFSET 13.100000 0.000000 0.000000
							CHANNELS 3 Yrotation Xrotation Zrotation
							JOINT LeftForeArm
							{
								OFFSET 27.250000 0.000000 0.000000
								CHANNELS 3 Yrotation Xrotation Zrotation
								JOINT LeftHand
								{
									OFFSET 26.750000 0.000000 0.000000
									CHANNELS 3 Yrotation Xrotation Zrotation
									End Site
									{
										OFFSET 3.479000 0.532000 0.778000
									}
								}
							}
						}
					}
				}
			}
		}
	}
}
MOTION
Frames: 18
Frame Time: 0.01
0.0 94.49 0.0 -147.38 -0.75 -0.16 5.15 -8.25 -5.5 0.0 24.51 0.0 -2.52 -13.89 6.16 18.03 -10.09 5.76 0.0 26.83 0.0 8.93 -16.88 -1.65 1.01 -4.73 -0.86 0.26 -1.19 -0.21 0.44 -1.97 -0.35 0.91 0.78 0.37 0.92 0.78 0.38 18.91 12.84 9.06 24.66 -7.25 -0.63 56.53 -64.34 12.07 79.53 29.1 -5.11 -34.69 26.07 0.21 0.77 0.13 -7.11 -26.97 3.62 -71.58 -1.99 -3.41 -0.48 -2.8 34.25 15.65
0.0 94.49 0.0 -147.36 -0.77 -0.15 5.21 -8.18 -5.49 0.0 24.43 -0.0 -2.64 -13.94 6.21 18.02 -10.08 5.78 -0.0 26.81 -0.0 8.93 -16.86 -1.65 1.0 -4.72 -0.87 0.25 -1.18 -0.21 0.43 -1.97 -0.35 0.91 0.78 0.37 0.92 0.78 0.38 18.83 12.82 9.04 24.7 -7.23 -0.64 56.49 -64.33 12.09 79.54 29.11 -5.14 -34.49 25.79 0.29 0.8 0.14 -7.11 -26.97 3.61 -71.56 -1.98 -3.42 -0.48 -2.81 34.25 15.67
0.0 94.49 0.0 -147.33 -0.79 -0.14 5.19 -8.14 -5.48 -0.0 24.43 -0.0 -2.67 -13.97 6.21 18.0 -10.07 5.79 -0.0 26.8 -0.0 8.94 -16.84 -1.66 0.98 -4.71 -0.88 0.25 -1.18 -0.21 0.43 -1.97 -0.35 0.91 0.78 0.37 0.92 0.78 0.38 18.75 12.8 9.03 24.75 -7.2 -0.65 56.4 -64.31 12.14 79.56 29.13 -5.18 -34.43 25.7 0.3 0.84 0.15 -7.11 -26.96 3.61 -71.54 -1.98 -3.43 -0.49 -2.81 34.24 15.69
0.0 94.49 0.0 -147.33 -0.79 -0.14 5.19 -8.13 -5.46 0.0 24.42 -0.0 -2.68 -13.99 6.2 18.02 -10.08 5.81 0.0 26.8 0.0 8.94 -16.83 -1.67 1.05 -4.71 -0.91 0.27 -1.18 -0.22 0.46 -1.96 -0.37 0.9 0.78 0.38 0.91 0.78 0.38 18.6 12.77 9.05 24.7 -7.19 -0.63 56.34 -64.29 12.17 79.31 29.23 -5.29 -34.17 25.49 0.31 0.77 0.17 -7.07 -26.97 3.59 -71.52 -1.95 -3.46 -0.49 -2.86 34.28 15.7
0.0 94.49 0.0 -147.33 -0.79 -0.14 5.18 -8.13 -5.45 0.0 24.42 0.0 -2.68 -14.02 6.2 18.02 -10.09 5.82 0.0 26.81 0.0 8.94 -16.83 -1.67 1.07 -4.7 -0.92 0.27 -1.18 -0.22 0.47 -1.96 -0.37 0.89 0.78 0.38 0.9 0.78 0.38 18.49 12.74 9.04 24.71 -7.17 -0.63 56.27 -64.25 12.22 79.43 29.15 -5.2 -34.27 25.45 0.16 0.78 0.19 -7.05 -26.96 3.58 -71.5 -1.94 -3.47 -0.49 -2.86 34.26 15.71
0.0 94.48 0.0 -147.33 -0.79 -0.14 5.17 -8.12 -5.44 -0.0 24.41 0.0 -2.69 -14.04 6.21 18.04 -10.11 5.84 0.0 26.82 0.0 8.93 -16.82 -1.68 1.11 -4.69 -0.94 0.28 -1.18 -0.23 0.48 -1.96 -0.38 0.89 0.77 0.38 0.9 0.78 0.38 18.39 12.7 9.04 24.7 -7.15 -0.63 56.24 -64.22 12.23 79.34 29.07 -5.06 -34.25 25.31 -0.12 0.72 0.17 -7.03 -26.92 3.58 -71.49 -1.91 -3.5 -0.49 -2.91 34.28 15.71
0.0 94.48 0.0 -147.33 -0.79 -0.14 5.16 -8.11 -5.42 0.0 24.39 0.0 -2.7 -14.06 6.21 18.06 -10.12 5.85 0.0 26.82 0.0 8.92 -16.81 -1.68 1.15 -4.68 -0.95 0.29 -1.17 -0.23 0.5 -1.95 -0.39 0.88 0.77 0.38 0.89 0.77 0.38 18.28 12.66 9.03 24.7 -7.13 -0.62 56.19 -64.18 12.26 79.24 29.11 -5.1 -34.12 25.17 -0.15 0.65 0.16 -7.02 -26.85 3.6 -71.49 -1.9 -3.52 -0.48 -2.94 34.27 15.7
0.0 94.48 0.0 -147.29 -0.81 -0.13 5.12 -8.08 -5.41 -0.0 24.38 -0.0 -2.71 -14.09 6.2 18.04 -10.12 5.86 0.0 26.82 0.0 8.92 -16.8 -1.67 1.13 -4.67 -0.96 0.29 -1.17 -0.23 0.49 -1.95 -0.39 0.88 0.77 0.38 0.89 0.77 0.38 18.24 12.64 9.02 24.75 -7.1 -0.62 56.14 -64.14 12.3 79.16 29.18 -5.12 -34.01 24.99 -0.18 0.7 0.19 -7.02 -26.85 3.58 -71.47 -1.86 -3.56 -0.48 -2.99 34.29 15.68
0.0 94.48 0.0 -147.26 -0.82 -0.13 5.08 -8.05 -5.41 -0.0 24.37 -0.0 -2.72 -14.11 6.2 18.03 -10.12 5.87 0.0 26.82 0.0 8.91 -16.79 -1.67 1.11 -4.66 -0.96 0.28 -1.17 -0.23 0.48 -1.95 -0.39 0.88 0.77 0.38 0.89 0.77 0.38 18.21 12.62 9.01 24.81 -7.06 -0.61 56.1 -64.1 12.33 79.34 29.08 -4.98 -34.16 24.95 -0.35 0.76 0.22 -7.01 -26.85 3.57 -71.46 -1.84 -3.58 -0.47 -3.05 34.3 15.66
0.0 94.48 0.0 -147.01 -0.85 -0.11 4.83 -7.98 -5.42 0.0 24.37 0.0 -2.73 -14.16 6.21 17.8 -10.12 5.86 0.0 26.82 0.0 8.9 -16.76 -1.66 1.0 -4.63 -0.99 0.25 -1.16 -0.24 0.44 -1.93 -0.4 0.88 0.77 0.38 0.89 0.77 0.38 18.13 12.58 9.0 24.82 -7.04 -0.58 56.12 -64.11 12.23 79.15 29.09 -5.0 -33.96 24.77 -0.36 0.91 0.31 -6.99 -27.01 3.52 -71.43 -1.8 -3.6 -0.47 -3.1 34.3 15.62
0.0 94.48 0.0 -146.95 -0.85 -0.1 4.77 -7.97 -5.42 0.0 24.36 -0.0 -2.74 -14.19 6.21 17.76 -10.13 5.86 0.0 26.82 0.0 8.9 -16.75 -1.66 1.02 -4.62 -1.02 0.26 -1.16 -0.25 0.45 -1.93 -0.41 0.87 0.76 0.38 0.88 0.77 0.38 18.03 12.54 9.01 24.8 -7.02 -0.56 56.13 -64.11 12.13 79.11 29.0 -4.93 -33.92 24.67 -0.45 0.92 0.32 -6.97 -27.03 3.51 -71.43 -1.78 -3.62 -0.46 -3.14 34.29 15.59
0.0 94.48 0.0 -146.95 -0.85 -0.1 4.77 -7.96 -5.41 0.0 24.35 0.0 -2.76 -14.2 6.21 17.77 -10.15 5.87 0.0 26.82 0.0 8.9 -16.75 -1.66 1.21 -4.59 -1.09 0.31 -1.15 -0.26 0.53 -1.92 -0.44 0.85 0.76 0.38 0.86 0.76 0.39 17.73 12.45 9.05 24.55 -7.05 -0.49 56.16 -64.12 12.02 78.98 28.98 -4.91 -33.79 24.5 -0.52 0.71 0.3 -6.9 -27.13 3.5 -71.42 -1.7 -3.72 -0.45 -3.21 34.31 15.54
0.0 94.48 0.0 -146.95 -0.85 -0.1 4.78 -7.95 -5.4 -0.0 24.34 -0.0 -2.78 -14.22 6.21 17.79 -10.16 5.88 -0.0 26.82 -0.0 8.91 -16.75 -1.67 1.29 -4.58 -1.11 0.33 -1.15 -0.27 0.56 -1.91 -0.45 0.85 0.76 0.39 0.86 0.76 0.39 17.61 12.42 9.06 24.5 -7.03 -0.45 56.19 -64.12 11.9 79.15 28.82 -4.71 -33.96 24.43 -0.77 0.72 0.32 -6.87 -27.26 3.5 -71.41 -1.62 -3.83 -0.45 -3.28 34.31 15.5
0.0 94.48 0.0 -146.95 -0.85 -0.1 4.78 -7.95 -5.38 0.0 24.34 -0.0 -2.79 -14.24 6.21 17.8 -10.18 5.9 -0.0 26.83 -0.0 8.93 -16.76 -1.68 1.38 -4.57 -1.14 0.35 -1.15 -0.28 0.6 -1.91 -0.46 0.84 0.76 0.39 0.85 0.76 0.39 17.48 12.38 9.06 24.42 -7.01 -0.41 56.24 -64.12 11.78 78.88 28.86 -4.77 -33.68 24.15 -0.9 0.71 0.33 -6.85 -27.4 3.49 -71.39 -1.54 -3.96 -0.45 -3.35 34.31 15.46
0.0 94.47 0.0 -146.95 -0.85 -0.1 4.78 -7.95 -5.37 0.0 24.34 0.0 -2.81 -14.25 6.21 17.81 -10.19 5.91 -0.0 26.84 -0.0 8.94 -16.77 -1.7 1.47 -4.56 -1.17 0.37 -1.15 -0.28 0.64 -1.9 -0.47 0.83 0.75 0.39 0.84 0.76 0.39 17.34 12.34 9.06 24.35 -7.0 -0.36 56.26 -64.11 11.67 78.84 28.8 -4.68 -33.64 24.01 -1.12 0.72 0.34 -6.83 -27.55 3.49 -71.38 -1.45 -4.11 -0.45 -3.41 34.3 15.42
0.0 94.47 0.0 -146.95 -0.85 -0.1 4.78 -7.95 -5.37 -0.0 24.35 -0.0 -2.83 -14.28 6.21 17.81 -10.21 5.92 0.0 26.87 -0.0 8.95 -16.77 -1.71 1.58 -4.55 -1.21 0.4 -1.14 -0.29 0.69 -1.9 -0.49 0.83 0.75 0.39 0.84 0.75 0.39 17.17 12.31 9.07 24.26 -7.0 -0.3 56.17 -64.05 11.69 78.79 28.74 -4.64 -33.58 23.9 -1.4 0.69 0.35 -6.8 -27.64 3.5 -71.37 -1.39 -4.22 -0.45 -3.49 34.33 15.39
0.0 94.47 0.0 -146.95 -0.85 -0.1 4.79 -7.95 -5.36 0.0 24.35 0.0 -2.84 -14.3 6.21 17.82 -10.23 5.92 -0.0 26.88 -0.0 8.97 -16.79 -1.72 1.69 -4.54 -1.24 0.43 -1.14 -0.3 0.73 -1.9 -0.5 0.82 0.75 0.39 0.83 0.75 0.39 17.02 12.27 9.06 24.18 -7.01 -0.26 56.04 -63.99 11.74 78.98 28.54 -4.45 -33.75 23.89 -1.84 0.7 0.35 -6.78 -27.71 3.52 -71.36 -1.34 -4.3 -0.45 -3.55 34.32 15.36
0.0 94.47 0.0 -146.88 -0.86 -0.09 4.72 -7.94 -5.36 0.0 24.35 0.0 -2.87 -14.33 6.21 17.78 -10.25 5.93 0.0 26.9 0.0 8.97 -16.79 -1.72 1.77 -4.52 -1.28 0.45 -1.14 -0.31 0.77 -1.89 -0.52 0.81 0.75 0.39 0.82 0.75 0.4 16.84 12.23 9.09 24.09 -7.02 -0.21 55.99 -63.98 11.66 78.61 28.57 -4.5 -33.39 23.67 -2.11 0.69 0.34 -6.75 -27.18 3.48 -71.36 -1.52 -3.6 -0.42 -3.54 34.14 15.35
